<?xml version="1.0" encoding="UTF-8"?>
<svg width="210mm" height="297mm" version="1.1" viewBox="0 0 210 297" xmlns="http://www.w3.org/2000/svg" xmlns:cc="http://creativecommons.org/ns#" xmlns:dc="http://purl.org/dc/elements/1.1/" xmlns:rdf="http://www.w3.org/1999/02/22-rdf-syntax-ns#">
 <metadata>
  <rdf:RDF>
   <cc:Work rdf:about="">
    <dc:format>image/svg+xml</dc:format>
    <dc:type rdf:resource="http://purl.org/dc/dcmitype/StillImage"/>
    <dc:title/>
   </cc:Work>
  </rdf:RDF>
 </metadata>
 <path d="m-10489-1246.9h136.64v1e-4 136.64h-136.64v-136.64-1e-4z" fill="none" opacity=".99192"/>
 <g transform="translate(0 -2.8693)" shape-rendering="auto">
  <g transform="matrix(.0040941 0 0 .0040307 -10330 -1208.2)">
   <path d="m-9720.3-1197.1c-10.114 0.04-20.297 0.3202-30.535 0.8426l-84.63 4.3209c-262.1 13.38-458.68 181.56-440.74 377.08l51.468 561.01-2.23 24.292c-146.52 171.85-266.82 382.08-266.82 609.11 0 580.66 412.74 297.58 809.42 297.58 396.68 0 764.36 283.08 764.36-297.58 0-227.03-120.3-437.26-266.82-609.11l-2.2284-24.294 51.465-561.01c17.937-195.52-178.63-363.7-440.74-377.08l-84.626-4.3209c-14.773-0.7542-29.432-0.9949-43.941-0.752-4.4564-0.075-8.9239-0.1078-13.407-0.09z" color="#000000" color-rendering="auto" dominant-baseline="auto" fill="#ffd42a" image-rendering="auto" solid-color="#000000" stop-color="#000000" style="font-feature-settings:normal;font-variant-alternates:normal;font-variant-caps:normal;font-variant-east-asian:normal;font-variant-ligatures:normal;font-variant-numeric:normal;font-variant-position:normal;font-variation-settings:normal;inline-size:0;isolation:auto;mix-blend-mode:normal;shape-margin:0;shape-padding:0;text-decoration-color:#000000;text-decoration-line:none;text-decoration-style:solid;text-indent:0;text-orientation:mixed;text-transform:none;white-space:normal"/>
   <path d="m-9719.2-1198.3-1.1426 0.01c-10.132 0.04-20.333 0.3204-30.588 0.8437l-84.629 4.3203c-131.28 6.7016-246.18 52.163-326.07 120.51-79.884 68.345-124.75 159.64-115.75 257.81l51.459 560.9-2.187 23.838c-146.52 171.92-266.86 382.26-266.86 609.57 0 145.3 25.797 236.75 70.943 292.18 45.146 55.428 109.57 74.587 186.14 75.496 153.13 1.8178 355.41-68.955 553.48-68.955 198.07 0 389.05 70.774 530.95 68.955 70.948-0.90929 129.77-20.105 170.68-75.539 40.902-55.434 63.869-146.85 63.869-292.14 0-227.31-120.35-437.65-266.86-609.57l-2.1855-23.838 51.457-560.9c9.0056-98.166-35.864-189.46-115.75-257.81-79.884-68.344-194.79-113.81-326.07-120.51l-84.625-4.3203c-14.786-0.7548-29.458-0.9961-43.98-0.7539h-0.039c-4.071-0.068-8.1562-0.091-12.25-0.082zm-1.1328 2.2793c4.4743-0.018 8.9336 0.015 13.383 0.09h0.04c14.484-0.2424 29.116-9e-4 43.863 0.752l84.627 4.3203c130.83 6.6784 245.26 51.995 324.71 119.96s123.89 158.52 114.96 255.87l-51.475 561.11 2.2714 24.758 0.2344 0.27344c146.43 171.74 266.55 381.74 266.55 608.38 0 145.04-22.992 235.99-63.426 290.79-40.434 54.8-98.319 73.711-168.88 74.615-141.11 1.8085-332.31-68.955-530.92-68.955-198.61 0-401.05 70.764-553.46 68.955-76.204-0.90462-139.76-19.852-184.4-74.658-44.64-54.806-70.434-145.71-70.434-290.74 0-226.63 120.12-436.64 266.55-608.38l0.234-0.27539 2.272-24.756-51.477-561.11c-8.932-97.354 35.516-187.91 114.96-255.87 79.444-67.968 193.88-113.28 324.7-119.96l84.631-4.3203c10.22-0.5215 20.384-0.8019 30.48-0.8418z" color="#000000" color-rendering="auto" dominant-baseline="auto" image-rendering="auto" solid-color="#000000" stop-color="#000000" style="font-feature-settings:normal;font-variant-alternates:normal;font-variant-caps:normal;font-variant-east-asian:normal;font-variant-ligatures:normal;font-variant-numeric:normal;font-variant-position:normal;font-variation-settings:normal;inline-size:0;isolation:auto;mix-blend-mode:normal;shape-margin:0;shape-padding:0;text-decoration-color:#000000;text-decoration-line:none;text-decoration-style:solid;text-indent:0;text-orientation:mixed;text-transform:none;white-space:normal"/>
  </g>
  <g transform="matrix(.0018936 0 0 .0015463 -10351 -1206.6)" fill="#d400aa">
   <g>
    <path d="m-9463.2 1022.3c71.587 104.63 176.04 196.9 177.63 333.33 2.7905 240.02-48.998 506.25-147.42 723.09-66.135 145.71-162.24 289.49-295.15 378.61-162.37 108.87-377.78 214.86-564.81 157.95-142.84-43.465-283.52-191.35-291.06-340.46-5.766-114.08 150.8-176.38 195.28-281.6 24.767-58.596 33.521-123.75 36.699-187.28 8.592-171.78-95.239-316.85-76.804-487.85 13.336-123.7 61.31-286.7 141.88-381.51 43.951-51.72 116.07-74.261 181.5-92.289 74.515-20.529 154.11-18.542 231.35-15.585 86.768 3.3224 178.46-4.3621 257.81 37.332 61.296 32.211 110.55 94.082 153.09 156.27z" color="#000000" color-rendering="auto" dominant-baseline="auto" fill="#d400aa" image-rendering="auto" solid-color="#000000" stop-color="#000000" style="font-feature-settings:normal;font-variant-alternates:normal;font-variant-caps:normal;font-variant-east-asian:normal;font-variant-ligatures:normal;font-variant-numeric:normal;font-variant-position:normal;font-variation-settings:normal;inline-size:0;isolation:auto;mix-blend-mode:normal;shape-margin:0;shape-padding:0;text-decoration-color:#000000;text-decoration-line:none;text-decoration-style:solid;text-indent:0;text-orientation:mixed;text-transform:none;white-space:normal"/>
    <path d="m-9961.6 826.78c-48.732 0.50011-97.301 4.5362-143.89 17.371-65.438 18.028-137.58 40.57-181.57 92.33-80.601 94.849-99.968 232.02-113.3 355.72-18.44 171.05 56.789 341.99 48.199 513.72-3.177 63.528-11.929 128.66-36.687 187.24-22.219 52.564-72.465 94.437-116.45 137.43-43.987 42.993-81.724 87.124-78.838 144.23 7.541 149.19 148.26 297.1 291.15 340.58 187.1 56.932 402.54-49.085 564.92-157.96 132.94-89.137 229.05-232.93 295.2-378.66 98.424-216.86 163.03-463.93 134.91-701.61-15.892-134.31-93.549-250.31-165.14-354.94-42.552-62.192-91.809-124.08-153.14-156.31-79.386-41.717-171.11-34.026-257.86-37.348-28.963-1.109-58.261-2.0813-87.5-1.7812zm0 0.26563c29.231-0.30015 58.526 0.67224 87.488 1.7812 86.78 3.3229 178.45-4.3552 257.75 37.316 61.26 32.192 110.5 94.045 153.05 156.23 71.587 104.63 149.21 220.59 165.09 354.82 28.114 237.61-36.478 484.64-134.89 701.47-66.128 145.7-162.23 289.46-295.1 378.55-162.36 108.86-377.74 214.82-564.69 157.93-142.78-43.447-283.43-191.3-290.97-340.34-2.88-56.979 34.784-101.04 78.759-144.02 43.976-42.982 94.253-84.866 116.51-137.52 24.776-58.618 33.533-123.79 36.711-187.33 8.594-171.82-66.633-342.75-48.203-513.7 13.336-123.7 32.711-260.81 113.24-355.58 43.917-51.681 116.01-74.22 181.44-92.246 46.556-12.826 95.101-16.861 143.82-17.361z" color="#000000" color-rendering="auto" dominant-baseline="auto" fill="#000" image-rendering="auto" solid-color="#000000" stop-color="#000000" style="font-feature-settings:normal;font-variant-alternates:normal;font-variant-caps:normal;font-variant-east-asian:normal;font-variant-ligatures:normal;font-variant-numeric:normal;font-variant-position:normal;font-variation-settings:normal;inline-size:0;isolation:auto;mix-blend-mode:normal;shape-margin:0;shape-padding:0;text-decoration-color:#000000;text-decoration-line:none;text-decoration-style:solid;text-indent:0;text-orientation:mixed;text-transform:none;white-space:normal"/>
   </g>
   <path d="m-9866.8 742.53c-153.77 1e-5 -301.18 62.79-409.54 174.02-108.35 111.23-161.84 257.43-161.84 414.22 0 156.79 93.004 264.17 194.01 405.6 83.2 116.5 223.6 191.27 377.36 191.27 153.77 0 301.18-62.792 409.54-174.02 108.35-111.23 168.99-261.74 168.99-418.54 0-156.79-60.632-307.3-168.99-418.54-108.35-111.23-255.77-174.02-409.54-174.02zm0 100c126.58 1e-5 248.03 51.533 337.91 143.8 89.881 92.267 154.92 269.49 154.92 400.48 1e-4 131-65.038 204.77-154.92 297.03-89.881 92.267-211.33 143.8-337.91 143.8-126.58 0-248.03-51.533-337.91-143.8-89.881-92.267-162.07-204.83-162.07-335.83 0-131 72.188-269.42 162.07-361.69 89.881-92.267 211.33-143.8 337.91-143.8z" color="#000000" color-rendering="auto" dominant-baseline="auto" fill="#d400aa" image-rendering="auto" opacity=".99192" solid-color="#000000" stop-color="#000000" style="font-feature-settings:normal;font-variant-alternates:normal;font-variant-caps:normal;font-variant-east-asian:normal;font-variant-ligatures:normal;font-variant-numeric:normal;font-variant-position:normal;font-variation-settings:normal;inline-size:0;isolation:auto;mix-blend-mode:normal;shape-margin:0;shape-padding:0;text-decoration-color:#000000;text-decoration-line:none;text-decoration-style:solid;text-indent:0;text-orientation:mixed;text-transform:none;white-space:normal"/>
   <path d="m-10293 2044.3c-163.4 2e-4 -299.84 126.73-299.84 285.49 0 158.76 136.44 285.49 299.84 285.49 163.4 6e-4 299.84-126.73 299.84-285.49 0-158.76-136.44-285.49-299.84-285.49zm0 102.26c111.32-3e-4 197.58 83.122 197.58 183.23s-86.259 183.23-197.58 183.23c-111.32-1e-4 -197.58-83.123-197.58-183.23s86.26-183.23 197.58-183.23z" color="#000000" color-rendering="auto" dominant-baseline="auto" fill="#d400aa" image-rendering="auto" opacity=".99192" solid-color="#000000" stop-color="#000000" style="font-feature-settings:normal;font-variant-alternates:normal;font-variant-caps:normal;font-variant-east-asian:normal;font-variant-ligatures:normal;font-variant-numeric:normal;font-variant-position:normal;font-variation-settings:normal;inline-size:0;isolation:auto;mix-blend-mode:normal;shape-margin:0;shape-padding:0;text-decoration-color:#000000;text-decoration-line:none;text-decoration-style:solid;text-indent:0;text-orientation:mixed;text-transform:none;white-space:normal"/>
  </g>
 </g>
 <g stroke-width=".056202" aria-label="Cashew Hill">
  <path d="m-10360-1208.8q0 0.063-0.08 0.166-0.727 0.8654-1.932 0.8654-1.233 0-2-0.8417-0.747-0.814-0.747-2.0549 0-1.2013 0.731-2.039 0.763-0.8773 1.94-0.8773 1.281 0 2.008 0.7864 0.08 0.087 0.08 0.1541 0 0.075-0.277 0.5572-0.272 0.4821-0.343 0.5414-0.03 0.032-0.08 0.032-0.02 0-0.198-0.1581-0.213-0.1897-0.419-0.2964-0.312-0.158-0.648-0.158-0.581 0-0.929 0.4346-0.32 0.4031-0.32 0.9959 0 0.6006 0.32 1.0077 0.348 0.4425 0.929 0.4425 0.344 0 0.652-0.1501 0.202-0.099 0.411-0.2766 0.174-0.1502 0.194-0.1502 0.04 0 0.08 0.043 0.06 0.071 0.343 0.4939 0.289 0.4387 0.289 0.4821z"/>
  <path d="m-10355-1209.9q0 0.3042 0.04 0.9049t0.04 0.901q0 0.1581-0.139 0.1699-0.49 0.036-1.122 0.036-0.08 0-0.103-0.2253-0.02-0.2292-0.06-0.2331-0.03 0.016-0.08 0.067-0.443 0.4465-0.948 0.4465-0.771 0-1.277-0.6086-0.478-0.569-0.478-1.3593 0-0.9129 0.494-1.4701 0.514-0.5769 1.407-0.5769 0.62 0 0.98 0.4347 0.02 0.02 0.03 0.02 0.04 0 0.08-0.1896 0.05-0.1937 0.11-0.1937 0.146 0 0.557 0.083 0.392 0.079 0.562 0.1344 0.06 0.024 0.06 0.063 0 0.016-0.01 0.083-0.127 0.7152-0.127 1.5135zm-1.272 0.024q0-0.3359-0.213-0.5533-0.21-0.2213-0.55-0.2213-0.339 0-0.549 0.2174-0.209 0.2173-0.209 0.5572 0 0.3201 0.221 0.5493t0.537 0.2292q0.336 0 0.55-0.2174 0.213-0.2213 0.213-0.5611z"/>
  <path d="m-10352-1211.1q0 0.04-0.06 0.1067-0.11-0.028-0.221-0.028-0.233 0-0.391 0.1028-0.19 0.1185-0.19 0.3359 0 0.1383 0.202 0.3517 0.304 0.3201 0.375 0.4307 0.202 0.3003 0.202 0.6441 0 0.2016-0.08 0.4268-0.09 0.249-0.23 0.3636-0.292 0.2529-0.683 0.4267-0.423 0.1818-0.779 0.1818-0.08 0-0.355-0.4268-0.273-0.4307-0.273-0.5255 0-0.036 0.04-0.043 0.277-0.051 0.558-0.1027 0.347-0.1107 0.347-0.3636 0-0.1739-0.201-0.4031-0.36-0.3991-0.376-0.4228-0.201-0.2845-0.201-0.6007 0-0.5927 0.601-1.0076 0.537-0.3675 1.149-0.3675 0.06 0 0.313 0.4267 0.249 0.4229 0.249 0.494z"/>
  <path d="m-10348-1210.7v2.7267q0 0.1383-0.111 0.1541-0.127 0.016-0.577 0.016-0.435 0-0.605-0.032-0.13-0.024-0.13-0.1699 0-0.3399 0.01-1.0235t0.01-1.0235q0-0.4623-0.471-0.4623-0.158 0-0.371 0.1264-0.233 0.1383-0.233 0.2885v0.9761q0 0.1896 0 0.573 0 0.3793 0 0.569 0 0.1462-0.123 0.162-0.122 0.016-0.687 0.016-0.325 0-0.467-0.032t-0.142-0.1383q0-0.3122 0-0.9365 0-0.6284 0-0.9405 0-1.2922-0.03-2.1379-0.01-0.2964-0.02-0.5928-0.02-0.3438-0.07-0.5888-0.01-0.051-0.01-0.075 0-0.059 0.06-0.079 0.122-0.036 0.359-0.043 0.316-0.012 0.368-0.02 0.715-0.083 0.715-0.083 0.06 0 0.06 0.083 0 0.1264-0.01 0.3438-0.02 0.2529-0.02 0.3438-0.02 0.8931-0.02 1.4107 0 0.079 0.04 0.079 0 0 0.201-0.1383 0.229-0.1621 0.439-0.2569 0.312-0.1383 0.604-0.1383 0.506 0 0.846 0.2648 0.367 0.2845 0.367 0.7784z"/>
  <path d="m-10343-1210q0 0.3992-0.256 0.4545-0.04 0.01-0.818 0.087-0.467 0.051-1.391 0.1225 0.06 0.2569 0.335 0.3912 0.23 0.1107 0.522 0.1107 0.352 0 0.707-0.1897 0.151-0.095 0.301-0.1897 0.08 0.039 0.276 0.4031 0.198 0.3636 0.198 0.4624 0 0.028-0.06 0.091-0.482 0.5177-1.498 0.5177-0.941 0-1.517-0.5493-0.593-0.5572-0.593-1.4898 0-0.9088 0.529-1.4897 0.546-0.6007 1.447-0.6007 0.758 0 1.288 0.5532 0.529 0.5533 0.529 1.3159zm-1.383-0.241q0-0.245-0.174-0.4307-0.173-0.1858-0.415-0.1858-0.248 0-0.41 0.2095-0.151 0.1936-0.151 0.4544 0 0.1067 0.111 0.1067 0.292 0 0.909-0.091 0.13-0.02 0.13-0.063z"/>
  <path d="m-10337-1210.6q0 0.6165-0.1 0.8575-0.103 0.253-0.514 0.9405-0.419 0.7074-0.577 0.8773-0.107 0.1146-0.521 0.1146-0.344 0-0.435-0.024-0.07-0.02-0.138-0.079-0.226-0.2213-0.696-1.0867-0.498 0.8891-0.68 1.0867-0.09 0.1027-0.517 0.1027-0.301 0-0.388-0.024-0.197-0.055-0.667-0.8575-0.384-0.656-0.55-1.0512-0.102-0.2529-0.102-0.8575 0-0.731 0.04-0.893 0.03-0.1028 0.138-0.1028 0.182 0 0.546 0.012 0.363 0.012 0.545 0.012 0.09 0 0.09 0.1304 0 0.1146-0 0.3517-0 0.2332-0 0.3478 0 0.4781 0.02 0.7073 0 0.087 0.209 0.4466 0.206 0.3556 0.253 0.3556 0.07 0 0.261-0.3517 0.154-0.2964 0.202-0.4386 0.05-0.1462 0.05-0.7153 0-0.1185-0.02-0.3517-0.02-0.2371-0.02-0.3517 0-0.1225 0.09-0.1225 0.111 0 0.439-0h0.162t-0.02 0h0.133q0.15-0 0.438 0.01 0.09 0.012 0.09 0.1225 0 0.1502-0.02 0.4584-0.02 0.3043-0.02 0.4545 0 0.403 0.03 0.5097 0.04 0.1344 0.19 0.4308 0.178 0.3556 0.249 0.3556 0.07 0 0.265-0.3596 0.186-0.3438 0.197-0.4505 0.02-0.1501 0.02-1.3989 0-0.1383 0.08-0.1383 0.182 0 0.546-0.012 0.367-0.012 0.549-0.012 0.107 0 0.134 0.1107 0.04 0.1659 0.04 0.893z"/>
  <path d="m-10329-1208q0 0.083-0.03 0.1028-0.02 0.012-0.111 0.02-0.241 0.024-0.68 0.024-0.62 0-0.731-0.024-0.107-0.024-0.107-0.1067 0-0.3122 0.03-0.9365 0.03-0.6284 0.03-0.9405 0-0.1542-0.09-0.1779-0.135-0.032-0.957-0.032-0.825 0-0.964 0.032-0.09 0.02-0.09 0.1779 0 0.3082 0.02 0.9247 0.02 0.6125 0.02 0.9207 0 0.1186-0.107 0.1383-0.126 0.024-0.743 0.024-0.533 0-0.679-0.024-0.115-0.02-0.115-0.1225 0-0.4268 0.04-1.2882 0.04-0.8615 0.04-1.2922 0-0.4584-0.04-1.3752-0.04-0.9208-0.04-1.3792 0-0.087 0.08-0.087 0.122 0 0.367 0.012 0.249 0.012 0.372 0.012 0.126 0 0.379-0.012 0.257-0.012 0.383-0.012 0.07 0 0.07 0.071 0 0.2964-0.04 0.8892-0.04 0.5888-0.04 0.8851 0 0.1383 0.07 0.1621 0.103 0.032 1.011 0.032 0.846 0 0.98-0.032 0.1-0.024 0.1-0.1621 0-0.2845-0.03-0.8575-0.03-0.5769-0.03-0.8654 0-0.1225 0.1-0.1225 0.114 0 0.348 0.012 0.237 0.012 0.355 0.012 0.115 0 0.348-0.012 0.237-0.012 0.356-0.012 0.114 0 0.114 0.095 0 0.4545-0.04 1.3713t-0.04 1.3752q0 0.4307 0.04 1.2922 0.04 0.8614 0.04 1.2882z"/>
  <path d="m-10327-1212.6q0 0.6876-0.774 0.6876-0.332 0-0.55-0.1739-0.237-0.1897-0.237-0.5137 0-0.3082 0.245-0.5058 0.226-0.1818 0.542-0.1818 0.308 0 0.533 0.1857 0.241 0.1976 0.241 0.5019zm-0.102 2.9361q0 0.2885 0.01 0.8615 0.01 0.569 0.01 0.8535 0 0.083-0.1 0.099-0.134 0.024-0.604 0.024-0.474 0-0.609-0.024-0.09-0.016-0.106-0.051-0-0.016-0-0.1185 0-0.2727 0.01-0.818 0.01-0.5493 0.01-0.8259 0-1.1223-0.09-1.7862-0-0.063-0-0.083 0-0.079 0.106-0.079 0.111 0 0.336 0.024 0.229 0.024 0.344 0.024t0.344-0.02 0.344-0.02q0.09 0 0.09 0.079 0 0.016-0 0.075-0.09 0.7706-0.09 1.7862z"/>
  <path d="m-10325-1210.3q0 1.0788 0 1.6558 0 0.091 0.01 0.3121 0.01 0.2016 0.01 0.3122 0 0.083-0.1 0.099-0.177 0.032-0.64 0.032-0.474 0-0.604-0.032-0.09-0.02-0.1-0.1067 0-0.012 0-0.1699 0-0.3517 0-1.0512 0-0.7034 0-1.0511 0-1.6597 0-1.5135-0.01-0.8733-0.1-1.5056-0-0.043-0-0.067 0-0.087 0.103-0.087h1.41q0.1 0 0.09 0.083v0.071q-0.102 1.7071-0.102 3.0191z"/>
  <path d="m-10323-1210.3q0 1.0788 0 1.6558 0 0.091 0.01 0.3121 0.01 0.2016 0.01 0.3122 0 0.083-0.1 0.099-0.178 0.032-0.64 0.032-0.474 0-0.605-0.032-0.09-0.02-0.1-0.1067 0-0.012 0-0.1699 0-0.3517 0-1.0512 0-0.7034 0-1.0511 0-1.6597 0-1.5135-0.01-0.8733-0.1-1.5056-0-0.043-0-0.067 0-0.087 0.103-0.087h1.411q0.1 0 0.09 0.083v0.071q-0.103 1.7071-0.103 3.0191z"/>
 </g>
</svg>
